<svg xmlns="http://www.w3.org/2000/svg" viewBox="0 0 24 24" fill="none" stroke="currentColor" stroke-width="2" stroke-linecap="round" stroke-linejoin="round">
  <path d="M8 21V12c0-1.5 1-2.5 2.5-2.5h3c1.5 0 2.5 1 2.5 2.5v9"/>
  <path d="M8 12V8c0-2 1.5-3.5 3.5-3.5h1c2 0 3.5 1.5 3.5 3.5v4"/>
  <path d="M6 14v-2c0-1 0.5-1.5 1.5-1.5"/>
  <path d="M18 14v-2c0-1-0.5-1.5-1.5-1.5"/>
  <path d="M9 6V4c0-.5.5-1 1-1h4c.5 0 1 .5 1 1v2"/>
  <path d="M10 9h4"/>
  <path d="M10 15h4"/>
  <path d="M10 18h4"/>
</svg>