<svg xmlns="http://www.w3.org/2000/svg" viewBox="0 0 64 64" width="64" height="64">
  <defs>
    <linearGradient id="strategyGradient" x1="0%" y1="0%" x2="100%" y2="100%">
      <stop offset="0%" style="stop-color:#8B5CF6;stop-opacity:1" />
      <stop offset="100%" style="stop-color:#5B21B6;stop-opacity:1" />
    </linearGradient>
  </defs>
  
  <!-- Strategic planning elements -->
  <g transform="translate(32, 32)">
    <!-- Chess board/tactical grid -->
    <rect x="-20" y="-15" width="40" height="30" rx="2" fill="#1F2937" stroke="url(#strategyGradient)" stroke-width="2"/>
    
    <!-- Grid lines -->
    <path d="M-20 -10 L20 -10" stroke="#374151" stroke-width="1"/>
    <path d="M-20 -5 L20 -5" stroke="#374151" stroke-width="1"/>
    <path d="M-20 0 L20 0" stroke="#374151" stroke-width="1"/>
    <path d="M-20 5 L20 5" stroke="#374151" stroke-width="1"/>
    <path d="M-20 10 L20 10" stroke="#374151" stroke-width="1"/>
    
    <path d="M-15 -15 L-15 15" stroke="#374151" stroke-width="1"/>
    <path d="M-10 -15 L-10 15" stroke="#374151" stroke-width="1"/>
    <path d="M-5 -15 L-5 15" stroke="#374151" stroke-width="1"/>
    <path d="M0 -15 L0 15" stroke="#374151" stroke-width="1"/>
    <path d="M5 -15 L5 15" stroke="#374151" stroke-width="1"/>
    <path d="M10 -15 L10 15" stroke="#374151" stroke-width="1"/>
    <path d="M15 -15 L15 15" stroke="#374151" stroke-width="1"/>
    
    <!-- Strategic pieces -->
    <circle cx="-12" cy="-12" r="2" fill="#3B82F6"/>
    <circle cx="-7" cy="-7" r="2" fill="#3B82F6"/>
    <circle cx="7" cy="7" r="2" fill="#EF4444"/>
    <circle cx="12" cy="12" r="2" fill="#EF4444"/>
    
    <!-- Movement arrows -->
    <path d="M-12 -12 L-7 -7" stroke="#10B981" stroke-width="2" opacity="0.7"/>
    <polygon points="-7,-7 -6,-8 -6,-6" fill="#10B981"/>
    
    <path d="M7 7 L12 12" stroke="#F59E0B" stroke-width="2" opacity="0.7"/>
    <polygon points="12,12 11,11 13,11" fill="#F59E0B"/>
    
    <!-- Strategic overlay -->
    <circle cx="0" cy="0" r="8" fill="none" stroke="url(#strategyGradient)" stroke-width="1" opacity="0.5"/>
    <circle cx="0" cy="0" r="12" fill="none" stroke="url(#strategyGradient)" stroke-width="1" opacity="0.3"/>
    
    <!-- Central command point -->
    <circle cx="0" cy="0" r="3" fill="url(#strategyGradient)"/>
    <circle cx="0" cy="0" r="1" fill="#FFFFFF"/>
    
    <!-- Statistics/charts -->
    <g transform="translate(16, -20)">
      <rect x="0" y="0" width="12" height="8" fill="#374151" stroke="url(#strategyGradient)" stroke-width="1"/>
      <rect x="1" y="6" width="2" height="1" fill="#10B981"/>
      <rect x="4" y="4" width="2" height="3" fill="#F59E0B"/>
      <rect x="7" y="2" width="2" height="5" fill="#EF4444"/>
      <rect x="10" y="1" width="1" height="6" fill="#8B5CF6"/>
    </g>
  </g>
</svg>